<svg id="レイヤー_1" data-name="レイヤー 1" xmlns="http://www.w3.org/2000/svg" viewBox="0 0 841.89 595.28"><defs><style>.cls-1,.cls-2,.cls-3{fill:#fff;}.cls-2,.cls-3{stroke:#231815;stroke-miterlimit:10;}.cls-3{stroke-width:0.98px;}.cls-4{font-size:12px;font-family:Ricty-Regular, Ricty;}</style></defs><title>iconアートボード 1</title><rect id="Background" class="cls-1" x="-87.1" y="-27.38" width="987.59" height="675.17"/><g id="SainSmart_2.2inch_LCD_Display" data-name="SainSmart 2.2inch LCD Display"><rect class="cls-2" x="201.21" y="123.26" width="547.5" height="329"/><rect class="cls-3" x="252.21" y="123.26" width="466" height="329"/><rect class="cls-2" x="265.21" y="132.76" width="439.5" height="313"/><circle class="cls-2" cx="216.79" cy="369.76" r="6.08"/><circle class="cls-2" cx="216.79" cy="349.26" r="6.08"/><circle class="cls-2" cx="216.79" cy="328.76" r="6.08"/><circle class="cls-2" cx="216.79" cy="308.26" r="6.08"/><circle class="cls-2" cx="216.79" cy="287.76" r="6.08"/><circle class="cls-2" cx="216.79" cy="267.26" r="6.08"/><circle class="cls-2" cx="216.79" cy="246.76" r="6.08"/><circle class="cls-2" cx="216.79" cy="226.26" r="6.08"/><circle class="cls-2" cx="216.79" cy="205.76" r="6.08"/></g><text class="cls-4" transform="translate(162.69 211.84)">3.3V</text><text class="cls-4" transform="translate(168.69 232.34)">GND</text><text class="cls-4" transform="translate(174.69 252.85)">CS</text><text class="cls-4" transform="translate(168.69 273.34)">RST</text><text class="cls-4" transform="translate(156.69 293.84)">DC/RS</text><text class="cls-4" transform="translate(138.69 314.34)">SDI/MOSI</text><text class="cls-4" transform="translate(168.69 334.84)">SCK</text><text class="cls-4" transform="translate(168.69 355.35)">LED</text><text class="cls-4" transform="translate(138.69 375.85)">SDO/MISO</text></svg>