<?xml version="1.0" encoding="utf-8"?>
<!-- Generator: Adobe Illustrator 22.1.0, SVG Export Plug-In . SVG Version: 6.00 Build 0)  -->
<svg version="1.1" id="レイヤー_1" xmlns="http://www.w3.org/2000/svg" xmlns:xlink="http://www.w3.org/1999/xlink" x="0px"
	 y="0px" width="841.9px" height="595.3px" viewBox="0 0 841.9 595.3" style="enable-background:new 0 0 841.9 595.3;"
	 xml:space="preserve">
<style type="text/css">
	.st0{fill:none;stroke:#000000;stroke-width:5.57;stroke-miterlimit:10;}
	.st1{fill:none;stroke:#000000;stroke-width:1.39;stroke-miterlimit:10;}
	.st2{font-family:'KozGoPr6N-Regular-83pv-RKSJ-H';}
	.st3{font-size:11.14px;}
	.st4{fill:#800000;}
	.st5{letter-spacing:-1;}
	.st6{fill:#0F3058;}
	.st7{fill:#3B4149;}
	.st8{fill:#8C8C8C;}
	.st9{fill:#C9AC70;}
	.st10{fill:#A26E3F;}
	.st11{fill:#9A8470;}
	.st12{fill:none;stroke:#9A916C;stroke-width:6.2597;stroke-miterlimit:10;}
	.st13{fill:none;stroke:#000000;stroke-width:0.3;}
	.st14{font-size:12px;}
</style>
<g>
	<title>iconアートボード 1</title>
	<circle class="st0" cx="140.4" cy="217.8" r="8.7"/>
	<circle class="st0" cx="180.5" cy="217.8" r="8.7"/>
	<circle class="st0" cx="220.6" cy="217.8" r="8.7"/>
	<circle class="st0" cx="260.7" cy="217.8" r="8.7"/>
	<circle class="st0" cx="300.8" cy="217.8" r="8.7"/>
	<circle class="st0" cx="340.8" cy="217.8" r="8.7"/>
	<circle class="st0" cx="380.9" cy="217.8" r="8.7"/>
	<line class="st1" x1="140.4" y1="135.3" x2="140.4" y2="300.3"/>
	<line class="st1" x1="180.5" y1="135.3" x2="180.5" y2="300.3"/>
	<line class="st1" x1="220.6" y1="135.3" x2="220.6" y2="300.3"/>
	<line class="st1" x1="260.7" y1="135.3" x2="260.7" y2="300.3"/>
	<line class="st1" x1="300.8" y1="135.3" x2="300.8" y2="300.3"/>
	<line class="st1" x1="340.8" y1="135.3" x2="340.8" y2="300.3"/>
	<line class="st1" x1="380.9" y1="135.3" x2="380.9" y2="300.3"/>
	<line class="st1" x1="140.4" y1="279.5" x2="180.5" y2="279.5"/>
	<text transform="matrix(1 0 0 1 138.047 312.9478)" class="st2 st3">2.54mm</text>
	<line class="st1" x1="315.9" y1="475.9" x2="315.9" y2="435.8"/>
	<text transform="matrix(1 0 0 1 325.867 460.7578)" class="st2 st3">2.54mm</text>
	<rect x="215.2" y="469.8" width="201.4" height="12"/>
	<rect x="215.2" y="429.8" width="256.4" height="12"/>
	<path class="st4" d="M201.8,408.2l-81.8,0.1c-59.6,2-59.6,93.1,0,95.1l81.8,0.1v11.3h13.4V396.9h-13.4V408.2z"/>
	<line class="st1" x1="443.5" y1="481.9" x2="443.5" y2="469.8"/>
	<text transform="matrix(1 0 0 1 451.327 480.7078)" class="st2 st3">0.762mm</text>
	<rect x="544.4" y="469.3" width="12" height="12"/>
	<circle class="st1" cx="550.4" cy="475.4" r="8.7"/>
	<line class="st1" x1="578.2" y1="466.7" x2="578.2" y2="484"/>
	<text transform="matrix(1 0 0 1 587.557 479.2778)" class="st2 st3">1.1mm</text>
	<text transform="matrix(1 0 0 1 542.817 508.4878)" class="st2 st3">※穴の場合は0.762mmが</text>
	<text transform="matrix(1 0 0 1 667.847 508.4878)" class="st2 st3">入</text>
	<text transform="matrix(1 0 0 1 678.317 508.4878)" class="st2 st3 st5">る</text>
	<text transform="matrix(1 0 0 1 688.337 508.4878)" class="st2 st3 st5">よ</text>
	<text transform="matrix(1 0 0 1 697.9171 508.4878)" class="st2 st3 st5">う</text>
	<text transform="matrix(1 0 0 1 708.057 508.4878)" class="st2 st3">に</text>
	<text transform="matrix(1 0 0 1 542.817 521.8478)" class="st2 st3">　内径1.1mm程度</text>
	<text transform="matrix(1 0 0 1 633.307 521.8478)" class="st2 st3 st5">に</text>
	<text transform="matrix(1 0 0 1 643.217 521.8478)" class="st2 st3">し</text>
	<text transform="matrix(1 0 0 1 653.797 521.8478)" class="st2 st3">た</text>
	<text transform="matrix(1 0 0 1 664.937 521.8478)" class="st2 st3 st5">ほう</text>
	<text transform="matrix(1 0 0 1 685.197 521.8478)" class="st2 st3">がよ</text>
	<text transform="matrix(1 0 0 1 705.697 521.8478)" class="st2 st3">さ</text>
	<text transform="matrix(1 0 0 1 716.047 521.8478)" class="st2 st3 st5">そ</text>
	<text transform="matrix(1 0 0 1 725.957 521.8478)" class="st2 st3 st5">う</text>
	<g>
		<g>
			<g>
				<path class="st6" d="M526.7,369.5h213.2V141.2H526.7V369.5z M724.3,349.3c0,5.2-4,9.2-9.2,9.2s-9.2-4-9.2-9.2
					c0-5.2,4-9.2,9.2-9.2S724.3,344.1,724.3,349.3z M682.7,349.3c0,5.2-4,9.2-9.2,9.2c-5.2,0-9.2-4-9.2-9.2c0-5.2,4-9.2,9.2-9.2
					S682.7,344.1,682.7,349.3z M641.1,349.3c0,5.2-4,9.2-9.2,9.2s-9.2-4-9.2-9.2c0-5.2,4-9.2,9.2-9.2S641.1,344.1,641.1,349.3z
					 M599.5,349.3c0,5.2-4,9.2-9.2,9.2s-9.2-4-9.2-9.2s4-9.2,9.2-9.2S599.5,344.1,599.5,349.3z M557.9,349.3c0,5.2-4,9.2-9.2,9.2
					s-9.2-4-9.2-9.2s4-9.2,9.2-9.2S557.9,344.1,557.9,349.3z"/>
				<g>
					<rect x="533.6" y="252.2" class="st7" width="46.2" height="25.4"/>
					<g>
						<rect x="537.7" y="232.5" class="st8" width="8.7" height="19.6"/>
						<rect x="567.7" y="232.5" class="st8" width="8.7" height="19.6"/>
					</g>
					<g>
						<rect x="537.7" y="277.6" class="st8" width="8.7" height="19.6"/>
						<rect x="552.7" y="277.6" class="st8" width="8.7" height="19.6"/>
						<rect x="567.7" y="277.6" class="st8" width="8.7" height="19.6"/>
					</g>
				</g>
				<g>
					<rect x="633" y="204.2" class="st7" width="48" height="48"/>
					<g>
						<rect x="681" y="237.2" class="st8" width="8.1" height="5.8"/>
						<rect x="681" y="229.1" class="st8" width="8.1" height="5.8"/>
						<rect x="681" y="221" class="st8" width="8.1" height="5.8"/>
						<rect x="681" y="212.9" class="st8" width="8.1" height="5.8"/>
					</g>
					<g>
						<rect x="624.9" y="237.2" class="st8" width="8.1" height="5.8"/>
						<rect x="624.9" y="229.1" class="st8" width="8.1" height="5.8"/>
						<rect x="624.9" y="221" class="st8" width="8.1" height="5.8"/>
						<rect x="624.9" y="212.9" class="st8" width="8.1" height="5.8"/>
					</g>
					<g>
						<rect x="641.1" y="252.2" class="st8" width="5.2" height="6.4"/>
						<rect x="649.8" y="252.2" class="st8" width="5.2" height="6.4"/>
						<rect x="658.4" y="252.2" class="st8" width="5.2" height="6.4"/>
						<rect x="667.1" y="252.2" class="st8" width="5.2" height="6.4"/>
					</g>
					<g>
						<rect x="641.1" y="197.9" class="st8" width="5.2" height="6.4"/>
						<rect x="649.8" y="197.9" class="st8" width="5.2" height="6.4"/>
						<rect x="658.4" y="197.9" class="st8" width="5.2" height="6.4"/>
						<rect x="667.1" y="197.9" class="st8" width="5.2" height="6.4"/>
					</g>
				</g>
				<g>
					<rect x="649.2" y="270.1" class="st7" width="18.5" height="31.2"/>
					<g>
						<rect x="635.9" y="293.2" class="st8" width="13.3" height="5.8"/>
						<rect x="635.9" y="282.8" class="st8" width="13.3" height="5.8"/>
						<rect x="635.9" y="273" class="st8" width="13.3" height="5.8"/>
					</g>
					<g>
						<rect x="667.7" y="292.6" class="st8" width="13.3" height="5.8"/>
						<rect x="667.7" y="282.8" class="st8" width="13.3" height="5.8"/>
						<rect x="667.7" y="272.4" class="st8" width="13.3" height="5.8"/>
					</g>
				</g>
				<g>
					<rect x="532.5" y="215.2" class="st8" width="27.7" height="8.1"/>
					<rect x="532.5" y="152.2" class="st8" width="27.7" height="8.1"/>
					<rect x="532.5" y="160.3" class="st9" width="27.7" height="54.9"/>
				</g>
				<rect x="532.5" y="200.8" class="st10" width="27.7" height="5.2"/>
				<g>
					<rect x="649.8" y="160.3" class="st11" width="13.9" height="23.1"/>
					<rect x="633" y="160.3" class="st8" width="16.8" height="23.1"/>
					<rect x="663.6" y="160.3" class="st8" width="16.8" height="23.1"/>
				</g>
				<g>
					<rect x="698.3" y="169.6" class="st11" width="23.1" height="13.9"/>
					<rect x="698.3" y="183.4" class="st8" width="23.1" height="19.6"/>
					<rect x="698.3" y="151.1" class="st8" width="23.1" height="18.5"/>
				</g>
				<g>
					<rect x="705.8" y="223.9" class="st11" width="15" height="13.3"/>
					<rect x="705.8" y="237.2" class="st8" width="15" height="13.3"/>
					<rect x="705.8" y="210.6" class="st8" width="15" height="13.3"/>
				</g>
				<g>
					<rect x="596.6" y="223.3" class="st11" width="15" height="13.3"/>
					<rect x="596.6" y="236.6" class="st8" width="15" height="13.3"/>
					<rect x="596.6" y="210" class="st8" width="15" height="13.3"/>
				</g>
				<g>
					<rect x="596.6" y="271.3" class="st7" width="15" height="14.4"/>
					<rect x="596.6" y="285.7" class="st8" width="15" height="12.7"/>
					<rect x="596.6" y="258.5" class="st8" width="15" height="12.7"/>
				</g>
				<g>
					<rect x="707" y="273.6" class="st7" width="15" height="14.4"/>
					<rect x="707" y="288" class="st8" width="15" height="12.7"/>
					<rect x="707" y="260.9" class="st8" width="15" height="12.7"/>
				</g>
				<g>
					<rect x="679.2" y="305.9" class="st7" width="14.4" height="15"/>
					<rect x="693.7" y="305.9" class="st8" width="12.7" height="15"/>
					<rect x="666.5" y="305.9" class="st8" width="12.7" height="15"/>
				</g>
				<g>
					<rect x="624.4" y="305.9" class="st7" width="14.4" height="15"/>
					<rect x="638.8" y="305.9" class="st8" width="12.7" height="15"/>
					<rect x="611.6" y="305.9" class="st8" width="12.7" height="15"/>
				</g>
				<g>
					<rect x="549.2" y="305.9" class="st11" width="11" height="15"/>
					<rect x="536.5" y="305.9" class="st8" width="12.7" height="15"/>
					<rect x="560.2" y="305.9" class="st8" width="12.7" height="15"/>
				</g>
				
					<ellipse transform="matrix(1.850899e-02 -0.9998 0.9998 1.850899e-02 189.2933 891.3621)" class="st12" cx="548.7" cy="349.3" rx="12.1" ry="12.1"/>
				<circle class="st12" cx="590.3" cy="349.3" r="12.1"/>
				<circle class="st12" cx="631.9" cy="349.3" r="12.1"/>
				<circle class="st12" cx="673.5" cy="349.3" r="12.1"/>
				<circle class="st12" cx="715.1" cy="349.3" r="12.1"/>
			</g>
		</g>
		<g>
			<polyline class="st13" points="492.7,369.5 518.2,369.5 518.2,403.5 			"/>
			<polyline class="st13" points="526.7,403.5 526.7,378 492.7,378 			"/>
		</g>
		<g>
			<polyline class="st13" points="492.7,141.2 518.2,141.2 518.2,107.2 			"/>
			<polyline class="st13" points="526.7,107.2 526.7,132.7 492.7,132.7 			"/>
		</g>
		<g>
			<polyline class="st13" points="773.9,141.2 748.4,141.2 748.4,107.2 			"/>
			<polyline class="st13" points="739.9,107.2 739.9,132.7 773.9,132.7 			"/>
		</g>
		<g>
			<polyline class="st13" points="773.9,369.5 748.4,369.5 748.4,403.5 			"/>
			<polyline class="st13" points="739.9,403.5 739.9,378 773.9,378 			"/>
		</g>
		<g>
			<line class="st13" x1="490.7" y1="255.4" x2="514.7" y2="255.4"/>
			<line class="st13" x1="508.7" y1="219.4" x2="508.7" y2="291.4"/>
		</g>
		<g>
			<line class="st13" x1="775.9" y1="255.4" x2="751.9" y2="255.4"/>
			<line class="st13" x1="757.9" y1="291.4" x2="757.9" y2="219.4"/>
		</g>
		<g>
			<line class="st13" x1="597.3" y1="123.2" x2="669.3" y2="123.2"/>
			<line class="st13" x1="633.3" y1="105.2" x2="633.3" y2="129.2"/>
		</g>
		<g>
			<line class="st13" x1="669.3" y1="387.5" x2="597.3" y2="387.5"/>
			<line class="st13" x1="633.3" y1="405.5" x2="633.3" y2="381.5"/>
		</g>
	</g>
	<text transform="matrix(1 0 0 1 526.6969 75.1091)"><tspan x="0" y="0" class="st2 st14">アートボードは作ったパーツと原則</tspan><tspan x="0" y="14.4" class="st2 st14">同じサイズにしておく</tspan></text>
</g>
</svg>
