<?xml version="1.0" encoding="utf-8"?>
<!-- Generator: Adobe Illustrator 22.1.0, SVG Export Plug-In . SVG Version: 6.00 Build 0)  -->
<svg version="1.1" id="レイヤー_1" xmlns="http://www.w3.org/2000/svg" xmlns:xlink="http://www.w3.org/1999/xlink" x="0px"
	 y="0px" width="841.9px" height="595.3px" viewBox="0 0 841.9 595.3" style="enable-background:new 0 0 841.9 595.3;"
	 xml:space="preserve">
<style type="text/css">
	.st0{fill:none;stroke:#730C00;stroke-width:0.28;stroke-miterlimit:10;}
	.st1{font-family:'DroidSans';}
	.st2{font-size:12.4px;}
	.st3{fill:none;stroke:#000000;stroke-width:2.78;stroke-miterlimit:10;}
	.st4{fill:#555555;}
	.st5{font-family:'KozGoPr6N-Regular-83pv-RKSJ-H';}
	.st6{fill:none;stroke:#231815;stroke-width:0.69;stroke-miterlimit:10;}
	.st7{fill:none;stroke:#555555;stroke-width:1.93;stroke-linecap:round;stroke-miterlimit:10;}
	.st8{font-size:9.64px;}
	.st9{fill:none;stroke:#555555;stroke-width:1.93;stroke-miterlimit:10;}
	.st10{fill:none;stroke:#999999;stroke-width:0.59;stroke-miterlimit:10;}
	.st11{fill:#999999;}
	.st12{font-size:6.89px;}
	.st13{font-size:10px;}
	.st14{letter-spacing:2;}
	.st15{letter-spacing:-5;}
	.st16{fill:none;stroke:#000000;stroke-width:24;stroke-miterlimit:10;}
	.st17{fill:none;stroke:#555555;stroke-width:24;stroke-linecap:round;stroke-miterlimit:10;}
	.st18{fill:#888888;}
</style>
<title>iconアートボード 1</title>
<rect x="179.9" y="133.8" class="st0" width="19.8" height="19.8"/>
<rect x="179.9" y="153.7" class="st0" width="19.8" height="19.8"/>
<rect x="179.9" y="173.5" class="st0" width="19.8" height="19.8"/>
<rect x="179.9" y="193.3" class="st0" width="19.8" height="19.8"/>
<rect x="179.9" y="213.2" class="st0" width="19.8" height="19.8"/>
<rect x="179.9" y="233" class="st0" width="19.8" height="19.8"/>
<rect x="179.9" y="252.8" class="st0" width="19.8" height="19.8"/>
<rect x="179.9" y="272.7" class="st0" width="19.8" height="19.8"/>
<rect x="179.9" y="292.5" class="st0" width="19.8" height="19.8"/>
<rect x="199.7" y="133.8" class="st0" width="19.8" height="19.8"/>
<rect x="199.7" y="292.5" class="st0" width="19.8" height="19.8"/>
<rect x="219.6" y="133.8" class="st0" width="19.8" height="19.8"/>
<rect x="219.6" y="292.5" class="st0" width="19.8" height="19.8"/>
<rect x="239.4" y="133.8" class="st0" width="19.8" height="19.8"/>
<rect x="239.4" y="292.5" class="st0" width="19.8" height="19.8"/>
<rect x="259.2" y="133.8" class="st0" width="19.8" height="19.8"/>
<rect x="259.2" y="292.5" class="st0" width="19.8" height="19.8"/>
<rect x="279.1" y="133.8" class="st0" width="19.8" height="19.8"/>
<rect x="279.1" y="292.5" class="st0" width="19.8" height="19.8"/>
<rect x="298.9" y="133.8" class="st0" width="19.8" height="19.8"/>
<rect x="298.9" y="292.5" class="st0" width="19.8" height="19.8"/>
<rect x="318.7" y="133.8" class="st0" width="19.8" height="19.8"/>
<rect x="318.7" y="292.5" class="st0" width="19.8" height="19.8"/>
<rect x="338.6" y="133.8" class="st0" width="19.8" height="19.8"/>
<rect x="338.6" y="292.5" class="st0" width="19.8" height="19.8"/>
<rect x="358.4" y="133.8" class="st0" width="19.8" height="19.8"/>
<rect x="358.4" y="292.5" class="st0" width="19.8" height="19.8"/>
<rect x="378.2" y="133.8" class="st0" width="19.8" height="19.8"/>
<rect x="378.2" y="292.5" class="st0" width="19.8" height="19.8"/>
<rect x="398.1" y="133.8" class="st0" width="19.8" height="19.8"/>
<rect x="398.1" y="292.5" class="st0" width="19.8" height="19.8"/>
<rect x="417.9" y="133.8" class="st0" width="19.8" height="19.8"/>
<rect x="417.9" y="292.5" class="st0" width="19.8" height="19.8"/>
<rect x="437.7" y="133.8" class="st0" width="19.8" height="19.8"/>
<rect x="437.7" y="292.5" class="st0" width="19.8" height="19.8"/>
<rect x="457.6" y="133.8" class="st0" width="19.8" height="19.8"/>
<rect x="457.6" y="292.5" class="st0" width="19.8" height="19.8"/>
<rect x="477.4" y="133.8" class="st0" width="19.8" height="19.8"/>
<rect x="477.4" y="292.5" class="st0" width="19.8" height="19.8"/>
<rect x="497.2" y="133.8" class="st0" width="19.8" height="19.8"/>
<rect x="497.2" y="292.5" class="st0" width="19.8" height="19.8"/>
<rect x="517.1" y="133.8" class="st0" width="19.8" height="19.8"/>
<rect x="517.1" y="153.7" class="st0" width="19.8" height="19.8"/>
<rect x="517.1" y="173.5" class="st0" width="19.8" height="19.8"/>
<rect x="517.1" y="193.3" class="st0" width="19.8" height="19.8"/>
<rect x="517.1" y="213.2" class="st0" width="19.8" height="19.8"/>
<rect x="517.1" y="233" class="st0" width="19.8" height="19.8"/>
<rect x="517.1" y="252.8" class="st0" width="19.8" height="19.8"/>
<rect x="517.1" y="272.7" class="st0" width="19.8" height="19.8"/>
<rect x="517.1" y="292.5" class="st0" width="19.8" height="19.8"/>
<text transform="matrix(1 0 0 1 329.55 216.85)" class="st1 st2">Part name</text>
<text transform="matrix(1 0 0 1 340.45 238.54)" class="st1 st2">(4.5pt)</text>
<rect x="199.7" y="153.7" class="st3" width="317.3" height="138.8"/>
<path class="st4" d="M358.4,153.7c-0.8,0-1.4-0.3-1.4-0.6v-18.6c0-0.3,0.6-0.6,1.4-0.6s1.4,0.3,1.4,0.6V153
	C359.8,153.4,359.2,153.7,358.4,153.7z"/>
<text transform="matrix(1 0 0 1 344.24 126.93)" class="st5 st2">0.7pt</text>
<line class="st6" x1="357" y1="132.4" x2="359.8" y2="132.4"/>
<line class="st7" x1="298.9" y1="133.8" x2="298.9" y2="153.7"/>
<text transform="matrix(1 0 0 1 446.94 193.32)" class="st4 st5 st8">Pin name(3.5pt)</text>
<line class="st9" x1="517.1" y1="193.3" x2="536.9" y2="193.3"/>
<text transform="matrix(1 0 0 1 446.83 213.15)" class="st4 st5 st8">Pin name(3.5pt)</text>
<line class="st9" x1="517.1" y1="213.2" x2="536.9" y2="213.2"/>
<line class="st10" x1="439.6" y1="180.2" x2="439.6" y2="215.6"/>
<text transform="matrix(6.123234e-17 -1 1 6.123234e-17 430.27 222.9404)" class="st11 st5 st8">Group(3.5pt)</text>
<text transform="matrix(1 0 0 1 524.71 188.5)" class="st4 st5 st12">Pin Number(2.5pt)</text>
<rect x="179.9" y="133.8" class="st0" width="357" height="178.5"/>
<text transform="matrix(1 0 0 1 254.34 126.09)" class="st5 st2">0.1inch</text>
<text transform="matrix(1 0 0 1 402.49 106.28)" class="st5 st13">ピンの位置は左上始点</text>
<text transform="matrix(1 0 0 1 502.49 106.28)" class="st5 st13 st14">で</text>
<text transform="matrix(1 0 0 1 514.99 106.28)" class="st5 st13">0.1inch のグリッドに合わせる</text>
<text transform="matrix(1 0 0 1 402.49 123.78)" class="st5 st13">アートボードとパーツ本体との余白は全</text>
<text transform="matrix(1 0 0 1 582.49 123.78)" class="st5 st13 st14">て</text>
<text transform="matrix(1 0 0 1 594.99 123.78)" class="st5 st13">0.1inc</text>
<text transform="matrix(1 0 0 1 621.48 123.78)" class="st5 st13 st14">h</text>
<text transform="matrix(1 0 0 1 629.95 123.78)" class="st5 st13">にしておく</text>
<text transform="matrix(1 0 0 1 186.05 394.95)" class="st5 st13">ピン先に直</text>
<text transform="matrix(1 0 0 1 236.05 394.95)" class="st5 st13 st14">径</text>
<text transform="matrix(1 0 0 1 248.55 394.95)" class="st5 st13">0.7p</text>
<text transform="matrix(1 0 0 1 267.86 394.95)" class="st5 st13 st14">t</text>
<text transform="matrix(1 0 0 1 273.9 394.95)" class="st5 st13">の円を付けておき、配置した際</text>
<text transform="matrix(1 0 0 1 413.9 394.95)" class="st5 st13 st15">、</text>
<text transform="matrix(1 0 0 1 218.9 412.45)" class="st5 st13">配線の接続口にすると見た目がきれいになる</text>
<text transform="matrix(1 0 0 1 158.9 429.95)" class="st5 st13">わかりやすく色を明るめにしたが、配線と同色で構わない</text>
<polyline class="st16" points="611,497.8 611,329.1 683,329.1 "/>
<line class="st17" x1="611" y1="449.8" x2="418.9" y2="449.8"/>
<circle class="st18" cx="418.9" cy="449.8" r="12"/>
</svg>
