<?xml version="1.0" encoding="utf-8"?>
<!-- Generator: Adobe Illustrator 22.1.0, SVG Export Plug-In . SVG Version: 6.00 Build 0)  -->
<svg version="1.1" id="レイヤー_1" xmlns="http://www.w3.org/2000/svg" xmlns:xlink="http://www.w3.org/1999/xlink" x="0px"
	 y="0px" width="841.9px" height="595.3px" viewBox="0 0 841.9 595.3" style="enable-background:new 0 0 841.9 595.3;"
	 xml:space="preserve">
<style type="text/css">
	.st0{fill:#FFBF00;stroke:#FFBF00;stroke-width:19.39;}
	.st1{fill:none;stroke:#FFBF00;stroke-width:23.86;}
	.st2{font-family:'KozGoPr6N-Regular-83pv-RKSJ-H';}
	.st3{font-size:33.67px;}
	.st4{fill:none;stroke:#231815;stroke-width:4.21;}
	.st5{letter-spacing:7;}
	.st6{fill:none;stroke:#000000;stroke-width:4.21;}
	.st7{fill:none;stroke:#000000;stroke-width:7;stroke-miterlimit:10;}
</style>
<g id="copper1">
	<g id="copper0">
		<rect x="245.9" y="425.4" class="st0" width="23.9" height="23.9"/>
		<circle id="connector0pin" class="st1" cx="257.8" cy="316.2" r="26.7"/>
	</g>
</g>
<text transform="matrix(1 0 0 1 344.095 446.0788)" class="st2 st3">0.5mm</text>
<line class="st4" x1="314.3" y1="289.5" x2="314.3" y2="342.8"/>
<text transform="matrix(1 0 0 1 344.105 328.9288)" class="st2 st3">直</text>
<text transform="matrix(1 0 0 1 377.775 328.9288)" class="st2 st3 st5">径</text>
<text transform="matrix(1 0 0 1 419.855 328.9288)" class="st2 st3">1.118mm 線</text>
<text transform="matrix(1 0 0 1 603.705 328.9288)" class="st2 st3 st5">幅</text>
<text transform="matrix(1 0 0 1 645.785 328.9288)" class="st2 st3">1mm</text>
<line class="st6" x1="257.8" y1="437.4" x2="257.8" y2="316.2"/>
<text transform="matrix(1 0 0 1 85.645 388.2788)" class="st2 st3">2.54mm</text>
<g>
	<path d="M199.7,154.1c1,0,2,0.6,2,2s-1,2-2,2H182V129c0-1.3,0.6-2,2-2s2,0.7,2,2v25.1H199.7z"/>
	<path d="M218.6,129.1c0.3-1.1,0.8-2,2-2c1.3,0,1.8,1,2.1,2l7.7,27.1c0.3,1-0.8,2-1.9,2c-1.2,0-1.9-1-2.2-2l-1.5-4.8h-8.5l-1.5,4.8
		c-0.3,1-0.9,2-2.2,2c-1.1,0-2.2-1-1.9-2L218.6,129.1z M220.7,136.5L220.7,136.5l-3.2,10.8h6.3L220.7,136.5z"/>
	<path d="M239.6,127h11.2c5.9,0,8.6,3.6,8.6,9.2c0,2.3-0.5,4.4-2.6,6.3c2.3,2.2,2.6,4.3,2.6,7.2c0,5.2-3.5,8.3-8.6,8.3h-11.2
		L239.6,127L239.6,127z M243.6,140.6h7.2c2.9,0,4.6-1.3,4.6-4.3c0-3.4-0.9-5.2-4.6-5.2h-7.2V140.6z M243.6,154.1h7.2
		c2.9,0,4.6-1.3,4.6-4.3c0-3.4-0.9-5.2-4.6-5.2h-7.2V154.1z"/>
	<path d="M286.1,154.1c1,0,2,0.6,2,2s-1,2-2,2h-17.8V127h17.8c1,0,2,0.6,2,2c0,1.4-1,2-2,2h-13.8v9.6h5.9c1,0,2,0.6,2,2s-1,2-2,2
		h-5.9v9.6h13.8V154.1z"/>
	<path d="M314.9,154.1c1,0,2,0.6,2,2s-1,2-2,2h-17.8V129c0-1.3,0.6-2,2-2s2,0.7,2,2v25.1H314.9z"/>
</g>
<rect x="57.4" y="101.1" class="st7" width="727" height="393"/>
</svg>
