<?xml version="1.0" encoding="utf-8"?>
<!-- Generator: Adobe Illustrator 22.1.0, SVG Export Plug-In . SVG Version: 6.00 Build 0)  -->
<svg version="1.1" id="レイヤー_1" xmlns="http://www.w3.org/2000/svg" xmlns:xlink="http://www.w3.org/1999/xlink" x="0px"
	 y="0px" width="374.3px" height="243.6px" viewBox="0 0 374.3 243.6" style="enable-background:new 0 0 374.3 243.6;"
	 xml:space="preserve">
<style type="text/css">
	.st0{fill:#231815;stroke:#FFFFFF;stroke-miterlimit:10;}
	.st1{fill:none;}
</style>
<rect x="207.5" y="32.9" class="st0" width="31.2" height="31.2"/>
<circle class="st0" cx="151" cy="48.5" r="15.6"/>
<circle class="st0" cx="151" cy="120.5" r="15.6"/>
<circle class="st0" cx="223" cy="120.5" r="15.6"/>
<circle class="st0" cx="151" cy="192.5" r="15.6"/>
<circle class="st0" cx="223" cy="192.5" r="15.6"/>
<path d="M255.6,47.3v7.1h0.9c0.4,0,0.9,0.1,1.2,0.3c0.5,0.5,0.5,1.2,0,1.7c0,0,0,0,0,0c-0.4,0.3-0.8,0.4-1.2,0.3h-3.1
	c-0.4,0-0.9-0.1-1.2-0.3c-0.2-0.2-0.4-0.5-0.4-0.9c0-0.3,0.1-0.6,0.4-0.9c0.3-0.3,0.7-0.4,1.1-0.3V45c-0.4,0-0.7-0.1-1-0.4
	c-0.2-0.2-0.3-0.5-0.3-0.8c0-0.3,0.1-0.7,0.4-0.9c0.4-0.3,0.8-0.4,1.2-0.3h2.6l3.3,7.2l3.2-7.2h2.7c0.4,0,0.9,0.1,1.2,0.3
	c0.2,0.2,0.4,0.5,0.4,0.9c0,0.3-0.1,0.6-0.3,0.8c-0.3,0.2-0.6,0.4-1,0.4v9.4c0.4,0,0.8,0.1,1.1,0.3c0.2,0.2,0.4,0.5,0.4,0.9
	c0,0.3-0.1,0.6-0.4,0.9c-0.4,0.3-0.8,0.4-1.2,0.3h-3.2c-0.4,0-0.9-0.1-1.2-0.3c-0.5-0.5-0.5-1.2,0-1.7c0,0,0,0,0,0
	c0.3-0.3,0.8-0.4,1.2-0.3h0.9v-7.1l-2.8,6.2h-2.1L255.6,47.3z"/>
<path d="M275,45v9.4h2.4c0.4,0,0.9,0.1,1.2,0.3c0.5,0.5,0.5,1.2,0,1.7c0,0,0,0,0,0c-0.4,0.3-0.8,0.4-1.2,0.3h-7.3
	c-0.4,0-0.9-0.1-1.2-0.3c-0.5-0.5-0.5-1.2,0-1.7c0,0,0,0,0,0c0.4-0.3,0.8-0.4,1.2-0.3h2.5V45h-2.4c-0.4,0-0.9-0.1-1.2-0.3
	c-0.2-0.2-0.4-0.5-0.4-0.9c0-0.3,0.1-0.7,0.4-0.9c0.4-0.3,0.8-0.4,1.2-0.3h7.3c0.4,0,0.9,0.1,1.2,0.3c0.5,0.5,0.5,1.2,0,1.7
	c0,0,0,0,0,0c-0.4,0.3-0.8,0.4-1.2,0.3L275,45z"/>
<path d="M284.7,56.2c-0.1,0.2-0.3,0.3-0.5,0.5c-0.1,0.1-0.3,0.1-0.5,0.1c-0.3,0-0.7-0.1-0.9-0.4c-0.3-0.4-0.4-0.8-0.3-1.2v-1.6
	c0-0.4,0.1-0.8,0.3-1.2c0.2-0.2,0.6-0.4,0.9-0.4c0.3,0,0.5,0.1,0.7,0.2c0.2,0.2,0.4,0.5,0.4,0.7c0.1,0.3,0.2,0.5,0.3,0.7
	c0.4,0.3,0.8,0.6,1.2,0.7c0.6,0.3,1.2,0.4,1.9,0.4c0.9,0,1.9-0.2,2.6-0.8c0.4-0.2,0.7-0.7,0.7-1.2c0-0.3-0.1-0.6-0.3-0.8
	c-0.3-0.3-0.6-0.5-1-0.7c-0.7-0.2-1.4-0.4-2.1-0.5c-1-0.2-2-0.4-3-0.9c-0.7-0.3-1.2-0.8-1.6-1.5c-0.4-0.6-0.6-1.3-0.6-2
	c0-1.2,0.5-2.3,1.4-3c1-0.9,2.4-1.4,3.8-1.3c0.6,0,1.2,0.1,1.7,0.2c0.5,0.1,1,0.3,1.4,0.6c0.2-0.3,0.6-0.4,0.9-0.5
	c0.3,0,0.6,0.1,0.9,0.4c0.3,0.4,0.4,0.8,0.3,1.2v1.8c0,0.4-0.1,0.9-0.3,1.2c-0.2,0.2-0.5,0.4-0.9,0.4c-0.3,0-0.6-0.1-0.8-0.3
	c-0.2-0.2-0.4-0.5-0.4-0.8c-0.1-0.3-0.2-0.6-0.3-0.8c-0.3-0.3-0.6-0.6-1-0.8c-0.5-0.2-1-0.3-1.6-0.3c-0.7,0-1.5,0.2-2,0.6
	c-0.4,0.3-0.7,0.7-0.8,1.3c0,0.3,0.1,0.6,0.3,0.9c0.2,0.3,0.6,0.5,0.9,0.7c0.7,0.2,1.5,0.4,2.2,0.5c0.9,0.2,1.8,0.4,2.7,0.8
	c0.7,0.3,1.2,0.8,1.6,1.4c0.4,0.6,0.7,1.4,0.7,2.2c0,1.1-0.4,2.1-1.2,2.8c-1.2,1-2.7,1.5-4.2,1.4c-0.7,0-1.3-0.1-1.9-0.2
	C285.9,56.8,285.3,56.6,284.7,56.2z"/>
<path d="M309.4,49.7c0.1,2-0.6,3.9-2,5.3c-2.3,2.6-6.2,2.8-8.8,0.6c-0.1-0.1-0.1-0.1-0.2-0.2c-1.6-1.5-2.5-3.5-2.4-5.7
	c-0.1-2.2,0.8-4.2,2.4-5.7c2.5-2.4,6.4-2.3,8.8,0.2c0.1,0.1,0.1,0.1,0.2,0.2C308.7,45.8,309.4,47.8,309.4,49.7z M307,49.7
	c0-1.3-0.4-2.6-1.3-3.6c-1.3-1.7-3.8-1.9-5.4-0.6c-0.2,0.2-0.4,0.4-0.6,0.6c-1.8,2.1-1.8,5.1,0,7.2c1.4,1.7,3.8,1.9,5.4,0.6
	c0.2-0.2,0.4-0.4,0.6-0.6C306.5,52.4,307,51.1,307,49.7L307,49.7z"/>
<path d="M255.9,128.2c-0.1,0.2-0.3,0.3-0.5,0.5c-0.1,0.1-0.3,0.1-0.5,0.1c-0.3,0-0.7-0.1-0.9-0.4c-0.3-0.3-0.4-0.8-0.3-1.2v-1.6
	c0-0.4,0.1-0.9,0.3-1.2c0.2-0.2,0.5-0.4,0.9-0.4c0.3,0,0.5,0.1,0.7,0.2c0.2,0.2,0.4,0.5,0.4,0.7c0.1,0.3,0.2,0.5,0.3,0.7
	c0.3,0.3,0.8,0.6,1.2,0.7c0.6,0.3,1.2,0.4,1.9,0.4c0.9,0,1.9-0.2,2.6-0.8c0.4-0.2,0.6-0.7,0.7-1.1c0-0.3-0.1-0.6-0.3-0.8
	c-0.3-0.3-0.6-0.5-1-0.7c-0.7-0.2-1.4-0.4-2.1-0.5c-1-0.2-2-0.5-3-0.9c-0.7-0.3-1.2-0.8-1.6-1.4c-0.4-0.6-0.6-1.3-0.6-2
	c0-1.2,0.5-2.3,1.4-3c1-0.9,2.4-1.4,3.8-1.3c0.6,0,1.2,0.1,1.7,0.2c0.5,0.1,1,0.3,1.4,0.6c0.2-0.3,0.6-0.4,0.9-0.5
	c0.3,0,0.6,0.1,0.9,0.4c0.3,0.4,0.4,0.8,0.3,1.2v1.8c0,0.4-0.1,0.9-0.3,1.2c-0.2,0.2-0.5,0.4-0.9,0.4c-0.3,0-0.6-0.1-0.8-0.3
	c-0.2-0.2-0.3-0.5-0.4-0.8c0-0.3-0.2-0.6-0.3-0.8c-0.3-0.3-0.6-0.6-1-0.8c-0.5-0.2-1-0.3-1.6-0.3c-0.7,0-1.5,0.2-2.1,0.6
	c-0.4,0.3-0.7,0.7-0.8,1.3c0,0.3,0.1,0.6,0.3,0.9c0.2,0.3,0.6,0.5,0.9,0.7c0.7,0.2,1.5,0.4,2.2,0.5c1,0.2,1.9,0.4,2.8,0.8
	c0.7,0.3,1.2,0.8,1.6,1.4c0.4,0.6,0.7,1.4,0.7,2.2c0,1.1-0.4,2.1-1.3,2.8c-1.2,1-2.7,1.5-4.2,1.4
	C258.4,129.2,257.1,128.9,255.9,128.2L255.9,128.2z"/>
<path d="M277.6,115.2c0.1-0.2,0.3-0.3,0.5-0.5c0.2-0.1,0.4-0.1,0.6-0.2c0.3,0,0.6,0.1,0.9,0.4c0.3,0.4,0.4,0.8,0.3,1.2v2
	c0,0.4-0.1,0.9-0.3,1.2c-0.2,0.2-0.5,0.4-0.9,0.4c-0.3,0-0.6-0.1-0.8-0.3c-0.2-0.3-0.4-0.6-0.4-1c0-0.3-0.1-0.5-0.3-0.8
	c-0.4-0.4-0.8-0.7-1.4-0.8c-0.6-0.2-1.1-0.3-1.7-0.3c-1.5,0-2.8,0.7-3.6,2c-0.5,0.8-0.7,1.6-0.7,2.5v1.6c0,1.1,0.4,2.2,1.3,2.9
	c1,0.8,2.2,1.2,3.5,1.2c0.8,0,1.5-0.1,2.3-0.4c0.4-0.2,0.8-0.5,1.1-0.8c0.2-0.2,0.4-0.4,0.6-0.5c0.1-0.1,0.3-0.1,0.5-0.1
	c0.3,0,0.6,0.1,0.9,0.4c0.2,0.2,0.4,0.5,0.4,0.9c0,0.4-0.2,0.7-0.5,1c-0.5,0.6-1.1,1-1.8,1.3c-2.3,0.9-4.9,0.8-7.2-0.2
	c-2-1.1-3.3-3.2-3.3-5.5v-1.6c0-1.2,0.3-2.4,0.9-3.5c0.5-1,1.4-1.9,2.4-2.5c1-0.6,2.1-0.9,3.3-0.9c0.7,0,1.3,0.1,2,0.2
	C276.5,114.6,277.1,114.9,277.6,115.2z"/>
<path d="M285.7,123.8v2.6h0.9c0.4,0,0.9,0.1,1.2,0.3c0.5,0.5,0.5,1.2,0,1.7c0,0,0,0,0,0c-0.4,0.3-0.8,0.4-1.2,0.3h-3.7
	c-0.4,0-0.9-0.1-1.2-0.3c-0.5-0.5-0.5-1.2,0-1.7c0,0,0,0,0,0c0.4-0.3,0.8-0.4,1.2-0.3h0.4V117h-0.4c-0.4,0-0.9-0.1-1.2-0.3
	c-0.2-0.2-0.4-0.5-0.4-0.9c0-0.3,0.1-0.7,0.4-0.9c0.4-0.3,0.8-0.4,1.2-0.3h3.7c0.4,0,0.9,0.1,1.2,0.3c0.5,0.5,0.5,1.2,0,1.7
	c0,0,0,0,0,0c-0.4,0.3-0.8,0.4-1.2,0.3h-0.9v3.6l4.3-3.7c-0.2-0.1-0.4-0.3-0.5-0.5c-0.1-0.2-0.1-0.4-0.1-0.6c0-0.3,0.1-0.7,0.4-0.9
	c0.4-0.3,0.8-0.4,1.2-0.3h2.5c0.4,0,0.9,0.1,1.2,0.3c0.5,0.5,0.5,1.2,0,1.7c0,0,0,0,0,0c-0.3,0.3-0.7,0.4-1.1,0.3l-4.3,3.8
	c0.9,0.5,1.7,1.3,2.3,2.1c0.8,1.1,1.4,2.3,1.9,3.5h0.6c0.4,0,0.9,0.1,1.2,0.3c0.2,0.2,0.4,0.5,0.4,0.9c0,0.3-0.1,0.6-0.4,0.9
	c-0.4,0.3-0.8,0.4-1.2,0.3h-2.2c-0.5-1.2-1-2.3-1.6-3.4c-0.4-0.7-0.8-1.4-1.4-1.9c-0.5-0.4-1-0.8-1.5-1L285.7,123.8z"/>
<path d="M256.9,195.4v3h0.9c0.4,0,0.9,0.1,1.2,0.3c0.5,0.5,0.5,1.2,0,1.7c0,0,0,0,0,0c-0.4,0.3-0.8,0.4-1.2,0.3h-3.6
	c-0.4,0-0.9-0.1-1.2-0.3c-0.2-0.2-0.4-0.5-0.4-0.9c0-0.3,0.1-0.6,0.4-0.9c0.4-0.3,0.8-0.4,1.2-0.3h0.4V189h-0.4
	c-0.4,0-0.9-0.1-1.2-0.3c-0.2-0.2-0.4-0.5-0.4-0.9c0-0.3,0.1-0.7,0.4-0.9c0.4-0.3,0.8-0.4,1.2-0.3h5.5c1.4-0.1,2.8,0.4,3.9,1.3
	c0.9,0.8,1.4,1.9,1.4,3.1c0,0.7-0.2,1.4-0.6,2c-0.5,0.7-1.2,1.3-2,1.6c0.6,0.5,1.1,1.1,1.6,1.7c0.5,0.7,1,1.4,1.5,2.1
	c0.4,0,0.8,0,1.2,0.2c0.3,0.2,0.5,0.6,0.5,1c0,0.3-0.1,0.6-0.4,0.9c-0.4,0.3-0.8,0.4-1.2,0.3h-1.4c-1.9-3-3.6-4.8-4.8-5.4
	L256.9,195.4z M256.9,193h1.9c0.6,0,1.3-0.1,1.9-0.3c0.6-0.2,1.1-0.5,1.5-0.9c0.2-0.3,0.4-0.6,0.4-0.9c0-0.5-0.3-1-0.7-1.3
	c-0.6-0.4-1.4-0.6-2.1-0.6h-2.8V193z"/>
<path d="M271.3,194.9v3.5h6.1v-1.3c0-0.4,0.1-0.9,0.3-1.2c0.5-0.5,1.2-0.5,1.7,0c0,0,0,0,0,0c0.3,0.4,0.4,0.8,0.3,1.2v3.7h-11.3
	c-0.4,0-0.9-0.1-1.2-0.3c-0.5-0.5-0.5-1.2,0-1.7c0,0,0,0,0,0c0.4-0.3,0.8-0.4,1.2-0.3h0.4V189h-0.4c-0.4,0-0.9-0.1-1.2-0.3
	c-0.2-0.2-0.4-0.5-0.4-0.9c0-0.3,0.1-0.7,0.4-0.9c0.4-0.3,0.8-0.4,1.2-0.3h10.8v3.7c0,0.4-0.1,0.9-0.3,1.2c-0.2,0.2-0.5,0.4-0.9,0.4
	c-0.3,0-0.6-0.1-0.9-0.4c-0.3-0.4-0.4-0.8-0.3-1.2V189h-5.6v3.5h2.1c0-0.4,0-0.8,0.2-1.2c0.2-0.4,0.6-0.6,1-0.6
	c0.3,0,0.6,0.1,0.9,0.4c0.3,0.4,0.4,0.8,0.3,1.2v2.8c0,0.4,0,0.7-0.2,1.1c-0.2,0.3-0.6,0.6-1,0.6c-0.4,0-0.8-0.2-1-0.6
	c-0.2-0.4-0.2-0.8-0.2-1.2L271.3,194.9z"/>
<path d="M284.7,200.2c-0.1,0.2-0.3,0.3-0.5,0.5c-0.1,0.1-0.3,0.1-0.5,0.1c-0.3,0-0.7-0.1-0.9-0.4c-0.3-0.4-0.4-0.8-0.3-1.2v-1.6
	c0-0.4,0.1-0.9,0.3-1.2c0.2-0.2,0.6-0.4,0.9-0.4c0.3,0,0.5,0.1,0.7,0.2c0.2,0.2,0.4,0.5,0.4,0.7c0.1,0.3,0.2,0.5,0.3,0.7
	c0.4,0.3,0.8,0.6,1.2,0.7c0.6,0.3,1.2,0.4,1.9,0.4c0.9,0,1.9-0.2,2.6-0.8c0.4-0.2,0.6-0.7,0.7-1.1c0-0.3-0.1-0.6-0.3-0.8
	c-0.3-0.3-0.6-0.5-1-0.6c-0.7-0.2-1.4-0.4-2.1-0.5c-1-0.2-2-0.4-3-0.9c-0.7-0.3-1.2-0.8-1.6-1.4c-0.4-0.6-0.6-1.3-0.6-2
	c0-1.2,0.5-2.3,1.4-3c1-0.9,2.4-1.4,3.8-1.3c0.6,0,1.2,0.1,1.7,0.2c0.5,0.1,1,0.3,1.4,0.6c0.2-0.3,0.6-0.4,0.9-0.5
	c0.3,0,0.6,0.1,0.9,0.4c0.3,0.4,0.4,0.8,0.3,1.2v1.8c0,0.4-0.1,0.9-0.3,1.2c-0.2,0.2-0.5,0.4-0.9,0.4c-0.3,0-0.6-0.1-0.8-0.3
	c-0.2-0.2-0.4-0.5-0.4-0.8c-0.1-0.3-0.2-0.6-0.3-0.9c-0.3-0.3-0.6-0.6-1-0.8c-0.5-0.2-1-0.3-1.6-0.3c-0.7,0-1.5,0.2-2,0.6
	c-0.4,0.3-0.7,0.7-0.8,1.3c0,0.3,0.1,0.6,0.3,0.9c0.2,0.3,0.6,0.5,0.9,0.6c0.7,0.2,1.5,0.4,2.2,0.5c1,0.2,1.9,0.4,2.8,0.8
	c0.7,0.3,1.2,0.8,1.6,1.4c0.4,0.6,0.7,1.4,0.7,2.2c0,1.1-0.4,2.1-1.2,2.9c-1.2,1-2.7,1.5-4.2,1.4c-0.7,0-1.3-0.1-1.9-0.2
	C285.9,200.8,285.3,200.6,284.7,200.2z"/>
<path d="M300.2,194.9v3.5h6.1v-1.3c0-0.4,0.1-0.9,0.3-1.2c0.5-0.5,1.2-0.5,1.7,0c0,0,0,0,0,0c0.3,0.4,0.4,0.8,0.3,1.2v3.7h-11.3
	c-0.4,0-0.9-0.1-1.2-0.3c-0.2-0.2-0.4-0.5-0.4-0.9c0-0.3,0.1-0.6,0.4-0.9c0.4-0.3,0.8-0.4,1.2-0.3h0.4V189h-0.4
	c-0.4,0-0.9-0.1-1.2-0.3c-0.2-0.2-0.4-0.5-0.4-0.9c0-0.3,0.1-0.7,0.4-0.9c0.4-0.3,0.8-0.4,1.2-0.3h10.8v3.7c0,0.4-0.1,0.9-0.3,1.2
	c-0.2,0.2-0.5,0.4-0.9,0.4c-0.3,0-0.7-0.1-0.9-0.4c-0.3-0.4-0.4-0.8-0.3-1.2V189h-5.6v3.5h2.1c0-0.4,0-0.8,0.2-1.2
	c0.2-0.4,0.6-0.6,1-0.6c0.3,0,0.6,0.1,0.9,0.4c0.3,0.4,0.4,0.8,0.3,1.2v2.8c0,0.4,0,0.7-0.2,1.1c-0.2,0.3-0.6,0.6-1,0.6
	c-0.4,0-0.8-0.2-1-0.6c-0.2-0.4-0.2-0.8-0.2-1.2L300.2,194.9z"/>
<path d="M318.2,189v9.4h1.6c0.4,0,0.9,0.1,1.2,0.3c0.5,0.5,0.5,1.2,0,1.7c0,0,0,0,0,0c-0.4,0.3-0.8,0.4-1.2,0.3h-5.6
	c-0.4,0-0.9-0.1-1.2-0.3c-0.5-0.5-0.5-1.2,0-1.7c0,0,0,0,0,0c0.4-0.3,0.8-0.4,1.2-0.3h1.6V189h-2.6v2.3c0,0.4-0.1,0.9-0.3,1.2
	c-0.5,0.5-1.2,0.5-1.7,0c0,0,0,0,0,0c-0.3-0.4-0.4-0.8-0.3-1.2v-4.7h12.4v4.7c0,0.4-0.1,0.9-0.3,1.2c-0.2,0.2-0.5,0.4-0.9,0.4
	c-0.3,0-0.6-0.1-0.9-0.4c-0.3-0.4-0.4-0.8-0.3-1.2V189L318.2,189z"/>
<path d="M17.7,51c0-1.4,0.2-2.8,0.7-4.2c0.4-1.2,0.9-2.3,1.6-3.4c0.3-0.6,0.7-1.2,1.1-1.7c0.2-0.2,0.5-0.3,0.8-0.3
	c0.3,0,0.6,0.1,0.9,0.4c0.2,0.2,0.4,0.5,0.4,0.8c0,0.3-0.1,0.6-0.3,0.8c-0.8,1.2-1.4,2.5-1.9,3.9c-0.8,2.4-0.8,5,0,7.4
	c0.5,1.4,1.1,2.7,1.9,3.9c0.2,0.2,0.3,0.5,0.3,0.8c0,0.3-0.1,0.6-0.4,0.8c-0.2,0.2-0.5,0.4-0.9,0.3c-0.3,0-0.6-0.1-0.8-0.3
	c-0.5-0.5-0.9-1.2-1.2-1.8c-0.6-1.1-1.1-2.2-1.5-3.4C17.9,53.7,17.7,52.4,17.7,51z"/>
<path d="M33,53.3l3.5-8.3h-0.5c-0.4,0-0.9-0.1-1.3-0.3c-0.2-0.2-0.4-0.5-0.4-0.9c0-0.3,0.1-0.7,0.4-0.9c0.4-0.3,0.8-0.4,1.2-0.3h3.2
	c0.4,0,0.9,0.1,1.2,0.3c0.2,0.2,0.4,0.5,0.4,0.9c0,0.4-0.2,0.8-0.6,1C39.8,45,39.4,45,39,45l-4.9,11.8h-2.3L26.9,45
	c-0.4,0-0.8,0-1.1-0.2c-0.3-0.2-0.6-0.6-0.6-1c0-0.3,0.1-0.7,0.4-0.9c0.4-0.3,0.8-0.4,1.2-0.3h3.2c0.4,0,0.9,0.1,1.2,0.3
	c0.2,0.2,0.4,0.5,0.4,0.9c0,0.3-0.1,0.7-0.4,0.9c-0.4,0.3-0.8,0.4-1.2,0.3h-0.6L33,53.3z"/>
<path d="M51.1,43.2c0.1-0.2,0.3-0.3,0.5-0.5c0.2-0.1,0.4-0.1,0.6-0.2c0.3,0,0.6,0.1,0.9,0.4c0.3,0.4,0.4,0.8,0.3,1.2v2
	c0,0.4-0.1,0.9-0.3,1.2c-0.2,0.2-0.5,0.4-0.9,0.4c-0.3,0-0.6-0.1-0.8-0.3c-0.2-0.3-0.4-0.6-0.4-1c0-0.3-0.1-0.5-0.3-0.8
	c-0.4-0.4-0.8-0.7-1.3-0.8c-0.5-0.2-1.1-0.3-1.7-0.3c-0.7,0-1.4,0.2-2,0.5C45,45.5,44.4,46,44,46.7c-0.5,0.8-0.7,1.6-0.7,2.5v1.6
	c0,1.1,0.4,2.2,1.3,2.9c1,0.8,2.2,1.2,3.5,1.2c0.8,0,1.5-0.1,2.2-0.4c0.4-0.2,0.8-0.5,1.2-0.8c0.2-0.2,0.4-0.4,0.6-0.5
	c0.1-0.1,0.3-0.1,0.5-0.1c0.7,0,1.2,0.6,1.2,1.2c0,0.4-0.2,0.8-0.5,1c-0.5,0.6-1.1,1-1.8,1.3c-2.3,0.9-4.9,0.8-7.2-0.2
	c-1-0.5-1.8-1.3-2.3-2.2c-0.7-1-1-2.1-1-3.3v-1.6c0-1.2,0.3-2.4,0.9-3.5c0.5-1,1.4-1.9,2.4-2.5c1-0.6,2.1-0.9,3.3-0.9
	c0.7,0,1.3,0.1,2,0.2C50.1,42.7,50.6,42.9,51.1,43.2z"/>
<path d="M65.6,43.2c0.1-0.2,0.3-0.3,0.5-0.5c0.2-0.1,0.4-0.1,0.6-0.2c0.3,0,0.6,0.1,0.9,0.4c0.3,0.4,0.4,0.8,0.3,1.2v2
	c0,0.4-0.1,0.9-0.3,1.2c-0.2,0.2-0.5,0.4-0.9,0.4c-0.3,0-0.6-0.1-0.8-0.3c-0.2-0.3-0.4-0.6-0.4-1c0-0.3-0.1-0.5-0.3-0.8
	c-0.4-0.4-0.8-0.7-1.4-0.8c-0.6-0.2-1.1-0.3-1.7-0.3c-1.5,0-2.8,0.7-3.6,2c-0.5,0.8-0.7,1.6-0.7,2.5v1.6c0,1.1,0.4,2.2,1.3,2.9
	c1,0.8,2.2,1.2,3.5,1.2c0.8,0,1.5-0.1,2.3-0.4c0.4-0.2,0.8-0.5,1.2-0.8c0.2-0.2,0.4-0.4,0.6-0.5C66.6,53,66.8,53,67,53
	c0.3,0,0.6,0.1,0.8,0.4c0.2,0.2,0.4,0.5,0.4,0.9c0,0.4-0.2,0.8-0.5,1c-0.5,0.6-1.1,1-1.8,1.3c-2.3,0.9-4.9,0.9-7.2-0.2
	c-2-1.1-3.3-3.2-3.3-5.5v-1.6c0-1.2,0.3-2.4,0.9-3.5c0.6-1.1,1.4-1.9,2.5-2.5c1-0.6,2.1-0.9,3.3-0.9c0.7,0,1.3,0.1,2,0.2
	C64.5,42.7,65,42.9,65.6,43.2z"/>
<path d="M77.2,51c0,1.4-0.2,2.8-0.7,4.2c-0.4,1.2-0.9,2.3-1.6,3.4c-0.3,0.6-0.7,1.2-1.1,1.7c-0.2,0.2-0.5,0.3-0.8,0.3
	c-0.3,0-0.6-0.1-0.9-0.3c-0.2-0.2-0.4-0.5-0.3-0.8c0-0.3,0.1-0.6,0.3-0.8c0.8-1.2,1.4-2.5,1.8-3.9c0.8-2.4,0.8-5,0-7.4
	c-0.5-1.4-1.1-2.7-1.8-3.9c-0.2-0.2-0.3-0.5-0.3-0.8c0-0.3,0.1-0.6,0.3-0.8c0.4-0.5,1.2-0.5,1.6-0.1c0.5,0.5,0.9,1.2,1.2,1.8
	c0.6,1.1,1.1,2.2,1.5,3.4C77,48.3,77.2,49.6,77.2,51z"/>
<path d="M90.6,53.3l3.5-8.3h-0.6c-0.4,0-0.9-0.1-1.2-0.3c-0.2-0.2-0.4-0.5-0.4-0.9c0-0.3,0.1-0.7,0.4-0.9c0.4-0.3,0.8-0.4,1.2-0.3
	h3.2c0.4,0,0.9,0.1,1.2,0.3c0.2,0.2,0.4,0.5,0.4,0.9c0,0.4-0.2,0.8-0.6,1C97.4,45,97.1,45,96.7,45l-4.9,11.8h-2.3L84.5,45
	c-0.4,0-0.8,0-1.1-0.2c-0.3-0.2-0.6-0.6-0.6-1c0-0.3,0.1-0.7,0.4-0.9c0.4-0.3,0.8-0.4,1.2-0.3h3.2c0.4,0,0.9,0.1,1.2,0.3
	c0.2,0.2,0.4,0.5,0.4,0.9c0,0.3-0.1,0.7-0.4,0.9c-0.4,0.3-0.8,0.4-1.2,0.3h-0.6L90.6,53.3z"/>
<path d="M101.5,56.2c-0.1,0.2-0.3,0.3-0.5,0.5c-0.1,0.1-0.3,0.1-0.5,0.1c-0.3,0-0.6-0.1-0.9-0.4c-0.3-0.3-0.4-0.8-0.3-1.2v-1.6
	c0-0.4,0.1-0.8,0.3-1.2c0.2-0.2,0.5-0.4,0.9-0.4c0.3,0,0.5,0.1,0.7,0.2c0.2,0.2,0.4,0.5,0.4,0.7c0.1,0.3,0.2,0.5,0.3,0.7
	c0.3,0.3,0.8,0.6,1.2,0.7c0.6,0.3,1.2,0.4,1.9,0.4c0.9,0,1.9-0.2,2.6-0.8c0.4-0.2,0.6-0.7,0.7-1.1c0-0.3-0.1-0.6-0.3-0.8
	c-0.3-0.3-0.6-0.5-1-0.7c-0.7-0.2-1.4-0.4-2.1-0.5c-1-0.2-2-0.5-3-0.9c-0.7-0.3-1.2-0.8-1.6-1.5c-0.4-0.6-0.6-1.3-0.6-2
	c0-1.2,0.5-2.3,1.4-3c1-0.9,2.4-1.3,3.8-1.3c0.6,0,1.2,0.1,1.7,0.2c0.5,0.1,1,0.3,1.4,0.6c0.2-0.3,0.6-0.4,0.9-0.5
	c0.3,0,0.6,0.1,0.9,0.4c0.3,0.4,0.4,0.8,0.3,1.2v1.8c0,0.4-0.1,0.9-0.3,1.2c-0.2,0.2-0.5,0.4-0.9,0.4c-0.3,0-0.6-0.1-0.8-0.3
	c-0.2-0.2-0.3-0.5-0.4-0.8c0-0.3-0.2-0.6-0.3-0.8c-0.3-0.3-0.6-0.6-1-0.8c-0.5-0.2-1-0.3-1.6-0.3c-0.7,0-1.5,0.2-2.1,0.6
	c-0.4,0.3-0.7,0.7-0.8,1.3c0,0.3,0.1,0.6,0.3,0.9c0.2,0.3,0.6,0.5,0.9,0.7c0.7,0.2,1.5,0.4,2.2,0.5c1,0.2,1.9,0.4,2.8,0.8
	c0.7,0.3,1.2,0.8,1.7,1.4c0.4,0.6,0.7,1.4,0.7,2.2c0,1.1-0.4,2.1-1.3,2.8c-1.2,1-2.7,1.5-4.2,1.4c-0.7,0-1.3-0.1-1.9-0.2
	C102.7,56.9,102.1,56.6,101.5,56.2z"/>
<path d="M120.6,45v9.4h1.6c0.4,0,0.9,0.1,1.2,0.3c0.5,0.5,0.5,1.2,0,1.7c0,0,0,0,0,0c-0.4,0.3-0.8,0.4-1.2,0.3h-5.6
	c-0.4,0-0.9-0.1-1.2-0.3c-0.5-0.5-0.5-1.2,0-1.7c0,0,0,0,0,0c0.4-0.3,0.8-0.4,1.2-0.3h1.6V45h-2.6v2.3c0,0.4-0.1,0.9-0.3,1.2
	c-0.2,0.2-0.5,0.4-0.9,0.4c-0.3,0-0.6-0.1-0.9-0.4c-0.3-0.4-0.4-0.8-0.3-1.2v-4.7h12.5v4.7c0,0.4-0.1,0.9-0.3,1.2
	c-0.2,0.2-0.5,0.4-0.9,0.4c-0.3,0-0.6-0.1-0.9-0.4c-0.3-0.4-0.4-0.8-0.3-1.2V45H120.6z"/>
<path d="M72.4,119.3v7.1h0.9c0.4,0,0.9,0.1,1.2,0.3c0.5,0.5,0.5,1.2,0,1.7c0,0,0,0,0,0c-0.4,0.3-0.8,0.4-1.2,0.3h-3.2
	c-0.4,0-0.9-0.1-1.2-0.3c-0.5-0.5-0.5-1.2,0-1.7c0,0,0,0,0,0c0.3-0.3,0.7-0.4,1.1-0.3V117c-0.4,0-0.7-0.1-1-0.4
	c-0.2-0.2-0.3-0.5-0.3-0.8c0-0.3,0.1-0.7,0.4-0.9c0.4-0.3,0.8-0.4,1.2-0.3h2.6l3.3,7.2l3.2-7.2h2.7c0.4,0,0.9,0.1,1.2,0.3
	c0.2,0.2,0.4,0.5,0.4,0.9c0,0.3-0.1,0.6-0.3,0.8c-0.3,0.2-0.6,0.4-1,0.4v9.4c0.4,0,0.8,0.1,1.1,0.3c0.2,0.2,0.4,0.5,0.4,0.9
	c0,0.3-0.1,0.6-0.4,0.9c-0.4,0.3-0.8,0.4-1.2,0.3h-3.1c-0.4,0-0.9-0.1-1.2-0.3c-0.5-0.5-0.5-1.2,0-1.7c0,0,0,0,0,0
	c0.4-0.3,0.8-0.4,1.2-0.3h0.9v-7.2l-2.8,6.2h-2.1L72.4,119.3z"/>
<path d="M97.3,121.7c0.1,2-0.6,3.9-2,5.3c-2.3,2.6-6.2,2.8-8.8,0.6c-0.1-0.1-0.1-0.1-0.2-0.2c-3.1-3.1-3.2-8.2-0.1-11.3
	c0,0,0,0,0.1-0.1c2.5-2.4,6.4-2.3,8.8,0.2c0.1,0.1,0.1,0.1,0.2,0.2C96.7,117.8,97.4,119.8,97.3,121.7z M94.9,121.7
	c0.1-1.3-0.4-2.6-1.3-3.6c-1.3-1.7-3.8-1.9-5.4-0.6c-0.2,0.2-0.4,0.4-0.6,0.6c-1.8,2.1-1.8,5.2,0,7.2c1.4,1.7,3.8,1.9,5.4,0.6
	c0.2-0.2,0.4-0.4,0.6-0.6C94.5,124.4,95,123.1,94.9,121.7z"/>
<path d="M101.5,128.2c-0.1,0.2-0.3,0.3-0.5,0.5c-0.1,0.1-0.3,0.1-0.5,0.1c-0.3,0-0.6-0.1-0.9-0.4c-0.3-0.3-0.4-0.8-0.3-1.2v-1.6
	c0-0.4,0.1-0.8,0.3-1.2c0.2-0.2,0.5-0.4,0.9-0.4c0.3,0,0.5,0.1,0.7,0.2c0.2,0.2,0.4,0.5,0.4,0.7c0.1,0.3,0.2,0.5,0.3,0.7
	c0.3,0.3,0.8,0.6,1.2,0.7c0.6,0.3,1.2,0.4,1.9,0.4c0.9,0,1.9-0.2,2.6-0.8c0.4-0.2,0.6-0.7,0.7-1.1c0-0.3-0.1-0.6-0.3-0.8
	c-0.3-0.3-0.6-0.5-1-0.7c-0.7-0.2-1.4-0.4-2.1-0.5c-1-0.2-2-0.5-3-0.9c-0.7-0.3-1.2-0.8-1.6-1.4c-0.4-0.6-0.6-1.3-0.6-2
	c0-1.2,0.5-2.3,1.4-3c1-0.9,2.4-1.3,3.8-1.3c0.6,0,1.2,0.1,1.7,0.2c0.5,0.1,1,0.3,1.4,0.6c0.2-0.3,0.6-0.4,0.9-0.5
	c0.3,0,0.6,0.1,0.9,0.4c0.3,0.4,0.4,0.8,0.3,1.2v1.8c0,0.4-0.1,0.9-0.3,1.2c-0.2,0.2-0.5,0.4-0.9,0.4c-0.3,0-0.6-0.1-0.8-0.3
	c-0.2-0.2-0.3-0.5-0.4-0.8c0-0.3-0.2-0.6-0.3-0.8c-0.3-0.3-0.6-0.6-1-0.8c-0.5-0.2-1-0.3-1.6-0.3c-0.7,0-1.5,0.2-2.1,0.6
	c-0.4,0.3-0.7,0.7-0.8,1.3c0,0.3,0.1,0.6,0.3,0.9c0.2,0.3,0.6,0.5,0.9,0.7c0.7,0.2,1.5,0.4,2.2,0.5c1,0.2,1.9,0.4,2.8,0.8
	c0.7,0.3,1.2,0.8,1.7,1.4c0.4,0.6,0.7,1.4,0.7,2.2c0,1.1-0.4,2.1-1.3,2.8c-1.2,1-2.7,1.5-4.2,1.4c-0.7,0-1.3-0.1-1.9-0.2
	C102.7,128.9,102.1,128.6,101.5,128.2z"/>
<path d="M120.6,117v9.4h2.4c0.4,0,0.9,0.1,1.2,0.3c0.5,0.5,0.5,1.2,0,1.7c0,0,0,0,0,0c-0.4,0.3-0.8,0.4-1.2,0.3h-7.2
	c-0.4,0-0.9-0.1-1.2-0.3c-0.5-0.5-0.5-1.2,0-1.7c0,0,0,0,0,0c0.4-0.3,0.8-0.4,1.2-0.3h2.4V117h-2.4c-0.4,0-0.9-0.1-1.2-0.3
	c-0.2-0.2-0.4-0.5-0.4-0.9c0-0.3,0.1-0.7,0.4-0.9c0.4-0.3,0.8-0.4,1.2-0.3h7.2c0.4,0,0.9,0.1,1.2,0.3c0.5,0.5,0.5,1.2,0,1.7
	c0,0,0,0,0,0c-0.4,0.3-0.8,0.4-1.2,0.3L120.6,117z"/>
<path d="M96.6,196.4v3.2c-0.9,0.5-1.8,0.9-2.8,1.2c-0.8,0.2-1.6,0.3-2.5,0.3c-1.2,0-2.3-0.2-3.4-0.6c-0.7-0.2-1.4-0.6-1.9-1.1
	c-0.6-0.5-1-1.2-1.3-1.9c-0.4-0.9-0.6-1.8-0.6-2.8v-1.7c0-1.6,0.5-3.1,1.5-4.3c1.3-1.7,3.3-2.6,5.3-2.6c0.6,0,1.3,0.1,1.9,0.2
	c0.6,0.1,1.1,0.3,1.7,0.6c0.2-0.3,0.6-0.4,0.9-0.4c0.3,0,0.6,0.1,0.9,0.4c0.3,0.4,0.4,0.8,0.3,1.2v1.6c0,0.4-0.1,0.9-0.3,1.2
	c-0.2,0.2-0.5,0.4-0.9,0.4c-0.3,0-0.5-0.1-0.7-0.3c-0.2-0.2-0.3-0.5-0.4-0.8c-0.1-0.3-0.2-0.6-0.4-0.8c-0.3-0.3-0.7-0.5-1.1-0.6
	c-0.6-0.2-1.2-0.3-1.8-0.3c-0.9,0-1.7,0.2-2.5,0.6c-0.6,0.4-1.1,0.9-1.4,1.5c-0.4,0.7-0.6,1.5-0.6,2.3v1.7c-0.1,1.1,0.3,2.2,1.1,2.9
	c1,0.8,2.3,1.1,3.6,1c1,0,2.1-0.2,3-0.6v-1.8h-2.4c-0.4,0-0.9-0.1-1.2-0.3c-0.2-0.2-0.4-0.5-0.4-0.9c0-0.3,0.1-0.7,0.4-0.9
	c0.4-0.3,0.8-0.4,1.2-0.3h4.3c0.4,0,0.9,0.1,1.2,0.3c0.2,0.2,0.4,0.5,0.4,0.9c0,0.3-0.1,0.5-0.3,0.7
	C97.2,196.2,96.9,196.3,96.6,196.4z"/>
<path d="M102,191.2v7.2h0.9c0.4,0,0.9,0.1,1.2,0.3c0.5,0.5,0.5,1.2,0,1.7c0,0,0,0,0,0c-0.4,0.3-0.8,0.4-1.2,0.3h-3.2
	c-0.4,0-0.9-0.1-1.2-0.3c-0.2-0.2-0.4-0.5-0.4-0.9c0-0.3,0.1-0.6,0.4-0.9c0.3-0.3,0.8-0.4,1.2-0.3V189h-0.4c-0.4,0-0.9-0.1-1.2-0.3
	c-0.2-0.2-0.4-0.5-0.4-0.9c0-0.3,0.1-0.7,0.4-0.9c0.4-0.3,0.8-0.4,1.2-0.3h2.8l6.1,9.6V189h-0.9c-0.4,0-0.9-0.1-1.2-0.3
	c-0.2-0.2-0.4-0.5-0.4-0.9c0-0.3,0.1-0.7,0.4-0.9c0.4-0.3,0.8-0.4,1.2-0.3h3.2c0.4,0,0.9,0.1,1.2,0.3c0.2,0.2,0.4,0.5,0.4,0.9
	c0,0.3-0.1,0.6-0.4,0.9c-0.3,0.3-0.7,0.4-1.1,0.3v11.8h-2.4L102,191.2z"/>
<path d="M114,198.4V189c-0.4,0-0.8-0.1-1.1-0.3c-0.2-0.2-0.4-0.5-0.4-0.9c0-0.3,0.1-0.7,0.4-0.9c0.4-0.3,0.8-0.4,1.2-0.3h5
	c0.8,0,1.6,0.2,2.3,0.4c0.7,0.2,1.3,0.6,1.8,1.1c0.4,0.4,0.8,0.9,1.1,1.4c0.3,0.5,0.6,1.1,0.8,1.8c0.2,0.7,0.3,1.4,0.3,2.1v1.1
	c0,0.9-0.2,1.8-0.5,2.7c-0.3,0.7-0.8,1.4-1.3,1.9c-0.5,0.4-1,0.8-1.6,1.1c-0.9,0.4-2,0.6-3,0.6h-4.8c-0.4,0-0.9-0.1-1.2-0.3
	c-0.2-0.2-0.4-0.5-0.4-0.9c0-0.3,0.1-0.6,0.4-0.9C113.2,198.5,113.6,198.4,114,198.4z M116.4,198.4h2.6c0.7,0,1.5-0.1,2.2-0.4
	c0.6-0.3,1.1-0.8,1.4-1.4c0.3-0.7,0.5-1.4,0.5-2.2v-1.1c0-1.5-0.8-3-2-3.8c-0.7-0.4-1.4-0.5-2.1-0.5h-2.5L116.4,198.4z"/>
<rect class="st1" width="374.3" height="243.6"/>
</svg>
